<svg width="109" height="109" viewBox="0 0 109 109" fill="none" xmlns="http://www.w3.org/2000/svg">
<g clip-path="url(#clip0_106_195)">
<path fill-rule="evenodd" clip-rule="evenodd" d="M17.44 54.8493C17.44 37.2731 29.52 22.5365 45.78 18.59V0.698242C19.8256 4.89872 0 27.5438 0 54.8493C0 82.1544 19.8256 104.8 45.78 109V91.1082C29.52 87.1618 17.44 72.425 17.44 54.8493ZM109 54.8493C109 82.1544 89.1745 104.8 63.22 109V91.1082C79.4801 87.1618 91.56 72.425 91.56 54.8493C91.56 37.2731 79.4801 22.5365 63.22 18.59V0.698242C89.1745 4.89872 109 27.5438 109 54.8493Z" fill="#725FE7"/>
</g>
<defs>
<clipPath id="clip0_106_195">
<rect width="109" height="109" fill="white"/>
</clipPath>
</defs>
</svg>
