<svg width="110" height="110" viewBox="0 0 110 110" fill="none" xmlns="http://www.w3.org/2000/svg">
<mask id="mask0_59_301" style="mask-type:luminance" maskUnits="userSpaceOnUse" x="0" y="0" width="110" height="110">
<path d="M109.69 0.54187H0.529053V109.703H109.69V0.54187Z" fill="white"/>
</mask>
<g mask="url(#mask0_59_301)">
<path fill-rule="evenodd" clip-rule="evenodd" d="M0.529053 0.54187C0.529053 30.6859 24.9656 55.1225 55.1097 55.1225C24.9656 55.1225 0.529053 79.5594 0.529053 109.703H7.07873C7.07873 83.1764 28.5829 61.6722 55.1097 61.6722C81.6364 61.6722 103.141 83.1764 103.141 109.703H109.69C109.69 79.5594 85.2535 55.1225 55.1097 55.1225C85.2535 55.1225 109.69 30.6859 109.69 0.54187H103.141C103.141 27.0687 81.6364 48.5728 55.1097 48.5728C28.5829 48.5728 7.07873 27.0687 7.07873 0.54187H0.529053ZM13.6284 0.54187C13.6284 23.4513 32.2002 42.0232 55.1097 42.0232C78.0194 42.0232 96.591 23.4513 96.591 0.54187H90.0413C90.0413 19.8341 74.4018 35.4735 55.1097 35.4735C35.8175 35.4735 20.1781 19.8341 20.1781 0.54187H13.6284ZM26.7278 0.54187C26.7278 16.2168 39.4348 28.9238 55.1097 28.9238C70.7847 28.9238 83.4916 16.2168 83.4916 0.54187H76.9419C76.9419 12.5995 67.1671 22.3741 55.1097 22.3741C43.0521 22.3741 33.2774 12.5995 33.2774 0.54187H26.7278ZM55.1097 68.2219C78.0194 68.2219 96.591 86.7935 96.591 109.703H90.0413C90.0413 90.4111 74.4018 74.7715 55.1097 74.7715C35.8175 74.7715 20.1781 90.4111 20.1781 109.703H13.6284C13.6284 86.7935 32.2002 68.2219 55.1097 68.2219ZM55.1097 81.3212C70.7847 81.3212 83.4916 94.0281 83.4916 109.703H76.9419C76.9419 97.6457 67.1671 87.8709 55.1097 87.8709C43.0521 87.8709 33.2774 97.6457 33.2774 109.703H26.7278C26.7278 94.0281 39.4348 81.3212 55.1097 81.3212Z" fill="#588F2B"/>
</g>
</svg>
