<svg width="110" height="110" viewBox="0 0 110 110" fill="none" xmlns="http://www.w3.org/2000/svg">
<mask id="mask0_59_192" style="mask-type:luminance" maskUnits="userSpaceOnUse" x="0" y="0" width="110" height="110">
<path d="M109.852 0.245117H0.69043V109.406H109.852V0.245117Z" fill="white"/>
</mask>
<g mask="url(#mask0_59_192)">
<path fill-rule="evenodd" clip-rule="evenodd" d="M56.1465 0.71434C55.7224 0.0074919 54.698 0.00749241 54.2741 0.71434L43.979 17.8792C43.6988 18.3464 43.1169 18.5354 42.6156 18.3222L24.1974 10.4869C23.439 10.1642 22.6102 10.7663 22.6827 11.5873L24.443 31.5252C24.491 32.068 24.1314 32.5629 23.6004 32.6851L4.09432 37.1721C3.29106 37.3569 2.97451 38.3311 3.51575 38.9527L16.6591 54.0481C17.0169 54.4591 17.0169 55.0709 16.6591 55.4818L3.51575 70.5772C2.97451 71.1989 3.29106 72.1731 4.09432 72.3576L23.6004 76.8447C24.1314 76.967 24.491 77.462 24.443 78.0045L22.6827 97.9423C22.6102 98.7637 23.439 99.3658 24.1974 99.0432L42.6156 91.2076C43.1169 90.9942 43.6988 91.1836 43.979 91.6508L54.2741 108.815C54.698 109.523 55.7224 109.522 56.1465 108.815L66.4415 91.6508C66.7215 91.1836 67.3034 90.9942 67.805 91.2076L86.2232 99.0432C86.9813 99.3658 87.8104 98.7637 87.7378 97.9423L85.9776 78.0045C85.9296 77.462 86.2892 76.967 86.8203 76.8447L106.326 72.3576C107.129 72.1731 107.446 71.1989 106.905 70.5772L93.7613 55.4818C93.4038 55.0709 93.4038 54.4591 93.7613 54.0481L106.905 38.9527C107.446 38.3311 107.129 37.3569 106.326 37.1721L86.8203 32.6851C86.2892 32.5629 85.9296 32.068 85.9776 31.5252L87.7378 11.5873C87.8104 10.7663 86.9813 10.1642 86.2232 10.4869L67.805 18.3222C67.3034 18.5354 66.7215 18.3464 66.4415 17.8792L56.1465 0.71434ZM55.2711 82.1161C70.343 82.1161 82.5614 69.8977 82.5614 54.8258C82.5614 39.7537 70.343 27.5355 55.2711 27.5355C40.1991 27.5355 27.9807 39.7537 27.9807 54.8258C27.9807 69.8977 40.1991 82.1161 55.2711 82.1161Z" fill="#D3AC3B"/>
</g>
</svg>
