<svg width="110" height="110" viewBox="0 0 110 110" fill="none" xmlns="http://www.w3.org/2000/svg">
<mask id="mask0_59_295" style="mask-type:luminance" maskUnits="userSpaceOnUse" x="0" y="0" width="110" height="110">
<path d="M109.335 0.632202H0.174072V109.793H109.335V0.632202Z" fill="white"/>
</mask>
<g mask="url(#mask0_59_295)">
<path fill-rule="evenodd" clip-rule="evenodd" d="M0.174072 27.3767H15.1837H15.4567V27.3736C21.8116 27.2286 26.9186 22.0316 26.9186 15.6419V0.632202H30.1934V15.9148C30.1934 22.245 35.3251 27.3767 41.6554 27.3767C47.9856 27.3767 53.1173 22.245 53.1173 15.9148V0.632202H56.3921V15.9148C56.3921 22.245 61.5238 27.3767 67.8541 27.3767C74.1843 27.3767 79.316 22.245 79.316 15.9148V0.632202H83.1366V15.9148C83.1366 22.245 88.2683 27.3767 94.5986 27.3767H109.335V30.6516H94.0528C87.7225 30.6516 82.5908 35.7832 82.5908 42.1135C82.5908 48.4438 87.7225 53.5754 94.0528 53.5754H109.335V56.8503H94.0528C87.7225 56.8503 82.5908 61.9819 82.5908 68.3122C82.5908 74.6425 87.7225 79.7741 94.0528 79.7741H109.335V83.049H94.5986C88.2683 83.049 83.1366 88.1806 83.1366 94.5109V95.0567V109.793H79.316V94.5109C79.316 88.1806 74.1843 83.049 67.8541 83.049C61.5238 83.049 56.3921 88.1806 56.3921 94.5109V109.793H53.1173V94.5109C53.1173 88.1806 47.9856 83.049 41.6554 83.049C35.3251 83.049 30.1934 88.1806 30.1934 94.5109V109.793H26.9186V94.7838C26.9186 88.3941 21.8116 83.1969 15.4567 83.0522V83.049H15.1837H0.174072V79.7741H15.4567C21.7869 79.7741 26.9186 74.6425 26.9186 68.3122C26.9186 61.9819 21.7869 56.8503 15.4567 56.8503H0.174072V53.5754H15.4567C21.7869 53.5754 26.9186 48.4438 26.9186 42.1135C26.9186 35.7832 21.7869 30.6516 15.4567 30.6516H0.174072V27.3767ZM41.6554 53.5754C47.9856 53.5754 53.1173 48.4438 53.1173 42.1135C53.1173 35.7832 47.9856 30.6516 41.6554 30.6516C35.3251 30.6516 30.1934 35.7832 30.1934 42.1135C30.1934 48.4438 35.3251 53.5754 41.6554 53.5754ZM67.8541 53.5754C74.1843 53.5754 79.316 48.4438 79.316 42.1135C79.316 35.7832 74.1843 30.6516 67.8541 30.6516C61.5238 30.6516 56.3921 35.7832 56.3921 42.1135C56.3921 48.4438 61.5238 53.5754 67.8541 53.5754ZM53.1173 68.3122C53.1173 74.6425 47.9856 79.7741 41.6554 79.7741C35.3251 79.7741 30.1934 74.6425 30.1934 68.3122C30.1934 61.9819 35.3251 56.8503 41.6554 56.8503C47.9856 56.8503 53.1173 61.9819 53.1173 68.3122ZM67.8541 79.7741C74.1843 79.7741 79.316 74.6425 79.316 68.3122C79.316 61.9819 74.1843 56.8503 67.8541 56.8503C61.5238 56.8503 56.3921 61.9819 56.3921 68.3122C56.3921 74.6425 61.5238 79.7741 67.8541 79.7741Z" fill="#DF6F2E"/>
</g>
</svg>
