<svg width="110" height="110" viewBox="0 0 110 110" fill="none" xmlns="http://www.w3.org/2000/svg">
<mask id="mask0_59_215" style="mask-type:luminance" maskUnits="userSpaceOnUse" x="0" y="0" width="110" height="110">
<path d="M109.813 0.245117H0.651611V109.406H109.813V0.245117Z" fill="white"/>
</mask>
<g mask="url(#mask0_59_215)">
<path fill-rule="evenodd" clip-rule="evenodd" d="M80.5418 19.1239C81.2285 17.4687 81.5794 15.6939 81.5756 13.9022C81.5767 11.2066 80.7793 8.57112 79.2838 6.3284C77.7882 4.08567 75.6623 2.33629 73.1735 1.30109C70.6846 0.265887 67.9446 -0.0087243 65.2997 0.511925C62.6552 1.03257 60.2237 2.32514 58.3128 4.22644L55.2344 7.0934L52.1769 4.23585C49.6163 1.67843 46.1447 0.242914 42.5258 0.24512C38.9069 0.247325 35.437 1.68707 32.8796 4.24761C30.3221 6.80817 28.8866 10.2798 28.8888 13.8987C28.891 17.5177 30.3308 20.9875 32.8913 23.5449L53.8938 44.8579C54.0689 45.0357 54.2775 45.1768 54.5077 45.2732C54.7378 45.3696 54.9848 45.4192 55.2344 45.4192C55.4839 45.4192 55.7311 45.3696 55.9609 45.2732C56.1912 45.1768 56.3997 45.0357 56.5749 44.8579L77.5776 23.5449C78.8482 22.2817 79.8558 20.7791 80.5418 19.1239ZM29.9224 90.5275C29.2361 92.1829 28.8849 93.9573 28.8889 95.7492C28.8877 98.445 29.6851 101.081 31.1805 103.323C32.676 105.566 34.8023 107.315 37.2912 108.35C39.78 109.386 42.5198 109.66 45.1646 109.14C47.8095 108.619 50.2407 107.326 52.1515 105.425L55.2301 102.558L58.2877 105.415C60.8481 107.973 64.3199 109.409 67.9386 109.406C71.5579 109.404 75.0276 107.964 77.5852 105.404C80.1423 102.844 81.5778 99.3717 81.5756 95.7531C81.5734 92.1338 80.1336 88.6641 77.5732 86.1065L56.5706 64.7938C56.3959 64.6159 56.1869 64.4745 55.9565 64.3785C55.7268 64.2819 55.4795 64.2322 55.2301 64.2322C54.9806 64.2322 54.7336 64.2819 54.5034 64.3785C54.2733 64.4745 54.0646 64.6159 53.8896 64.7938L32.8871 86.1065C31.6164 87.37 30.6087 88.8726 29.9224 90.5275ZM96.1557 81.1697C94.3638 81.1735 92.5894 80.822 90.934 80.1359C89.2791 79.4498 87.7765 78.4417 86.513 77.1711L65.2003 56.169C65.0224 55.9938 64.881 55.7847 64.785 55.555C64.6883 55.3246 64.6387 55.0779 64.6387 54.8279C64.6387 54.5787 64.6883 54.3316 64.785 54.1015C64.881 53.8714 65.0224 53.6626 65.2003 53.4876L86.513 32.4851C89.0706 29.9246 92.5403 28.4848 96.1595 28.4826C99.7782 28.4804 103.25 29.9159 105.811 32.4734C108.371 35.0308 109.811 38.5006 109.813 42.1196C109.815 45.7386 108.38 49.2102 105.822 51.7707L102.965 54.8279L105.832 57.9068C107.733 59.8177 109.025 62.2487 109.546 64.8937C110.067 67.5387 109.792 70.2781 108.757 72.767C107.722 75.2558 105.973 77.3823 103.73 78.8778C101.487 80.3733 98.8515 81.1707 96.1557 81.1697ZM19.5304 29.5156C17.8752 28.8293 16.1004 28.478 14.3087 28.482C11.6131 28.4808 8.97756 29.2783 6.7349 30.7737C4.49216 32.2692 2.74278 34.3955 1.70758 36.8844C0.672381 39.3733 0.39777 42.113 0.918418 44.7578C1.43907 47.4026 2.73163 49.8339 4.63294 51.7447L7.4999 54.8234L4.64235 57.8806C2.08492 60.4416 0.649408 63.9129 0.651614 67.5321C0.653819 71.1508 2.09356 74.6205 4.6541 77.1782C7.21466 79.7358 10.6863 81.1713 14.3052 81.1691C17.9241 81.1669 21.394 79.7271 23.9514 77.1662L45.2644 56.1641C45.4421 55.9889 45.5833 55.7804 45.6797 55.55C45.776 55.3197 45.8257 55.073 45.8257 54.8233C45.8257 54.5738 45.776 54.3268 45.6797 54.0967C45.5833 53.8665 45.4421 53.6578 45.2644 53.4827L23.9514 32.4803C22.6882 31.2095 21.1856 30.2019 19.5304 29.5156Z" fill="#D35A63"/>
</g>
</svg>
